<svg version="1.0" xmlns="http://www.w3.org/2000/svg" width="28" height="26.667" viewBox="0 0 21 20"><path d="M9.8.7c.7.3 1.6.2 1.9-.1.4-.3-.2-.6-1.3-.5-1.1 0-1.4.3-.6.6zm-6.9 3c-1.3 1.6-1.2 1.7.4.4C4.9 2.8 5.4 2 4.6 2c-.2 0-1 .8-1.7 1.7zM16 5.3c-.7 1.2-1.9 3.3-2.7 4.7l-1.5 2.5 1.9-2.5c1-1.3 2.6-3.2 3.5-4.2 1-.9 1.4-1.9 1-2.2-.5-.3-1.4.5-2.2 1.7zm4.2 4.7c0 1.4.2 1.9.5 1.2.2-.6.2-1.8 0-2.5-.3-.6-.5-.1-.5 1.3zM8 11.7c1.3 2.7 2.7 3.6 3.5 2.3.4-.6.2-.9-.4-.8-.5.2-1.7-.6-2.6-1.7-1.6-2-1.6-2-.5.2zm-6 3.7c0 .2.8 1 1.8 1.7 1.5 1.3 1.6 1.2.3-.4S2 14.6 2 15.4zm14.9 1.3c-1.3 1.6-1.2 1.7.4.4 1.6-1.3 2.1-2.1 1.3-2.1-.2 0-1 .8-1.7 1.7zm-7.1 3c.6.2 1.8.2 2.5 0 .6-.3.1-.5-1.3-.5-1.4 0-1.9.2-1.2.5z"/></svg>